<svg width="1200" height="630" viewBox="0 0 1200 630" fill="none" xmlns="http://www.w3.org/2000/svg">
<path d="M599.788 132.907C599.788 132.907 473.445 14.9805 345.452 108.89C342.276 111.22 340.372 115.204 340.372 119.375V531.549C340.372 542.052 351.435 548.261 359.785 543.002C482.709 465.577 599.788 556.643 599.788 556.643C599.788 556.643 716.866 465.577 839.79 543.002C848.14 548.261 859.203 542.052 859.203 531.549V119.375C859.203 115.204 857.299 111.22 854.123 108.89C726.13 14.9805 599.788 132.907 599.788 132.907ZM599.788 132.907V556.643Z" fill="#4A5D3A"/>
<path d="M856.832 119.374C856.832 116.043 855.304 112.87 852.797 111.03C789.596 64.6598 726.842 70.5561 679.727 88.1235C656.156 96.9123 636.533 108.616 622.801 118.125C615.939 122.878 610.555 127.078 606.894 130.083C605.063 131.586 603.664 132.791 602.727 133.615C602.513 133.802 602.325 133.972 602.159 134.119V551.824C602.66 551.475 603.206 551.094 603.802 550.689C607.289 548.319 612.397 545.029 618.906 541.331C631.918 533.938 650.556 524.897 673.075 518.293C718.127 505.083 778.819 501.613 840.977 540.764C847.934 545.146 856.831 539.829 856.832 531.548V119.374ZM342.744 531.548C342.744 539.829 351.641 545.146 358.598 540.764C420.757 501.613 481.448 505.083 526.5 518.293C549.02 524.897 567.657 533.938 580.67 541.331C587.178 545.029 592.286 548.319 595.774 550.689C596.369 551.094 596.916 551.475 597.416 551.824V134.119C597.251 133.972 597.062 133.802 596.848 133.615C595.911 132.791 594.512 131.586 592.681 130.083C589.021 127.078 583.636 122.878 576.774 118.125C563.042 108.616 543.419 96.9123 519.848 88.1235C472.734 70.5561 409.979 64.6598 346.778 111.03C344.271 112.87 342.744 116.043 342.744 119.374V531.548ZM861.575 531.548C861.575 544.273 848.345 551.372 838.603 545.236C777.838 506.962 718.527 510.314 674.309 523.28C652.195 529.765 633.88 538.65 621.099 545.912C614.711 549.541 609.71 552.762 606.315 555.07C604.617 556.224 603.321 557.148 602.454 557.781C602.02 558.098 601.694 558.343 601.478 558.505C601.371 558.587 601.29 558.647 601.238 558.687C601.211 558.707 601.192 558.723 601.18 558.732C601.174 558.737 601.17 558.741 601.168 558.742C600.343 559.384 599.234 559.384 598.409 558.742C598.407 558.741 598.401 558.737 598.396 558.732C598.384 558.723 598.364 558.707 598.338 558.687C598.286 558.647 598.204 558.587 598.097 558.505C597.881 558.343 597.555 558.098 597.122 557.781C596.254 557.148 594.958 556.224 593.26 555.07C589.865 552.762 584.864 549.541 578.476 545.912C565.695 538.65 547.381 529.765 525.266 523.28C481.048 510.314 421.737 506.962 360.972 545.236C351.23 551.372 338 544.273 338 531.548V119.374C338 114.364 340.282 109.569 344.126 106.748C408.918 59.2097 473.331 65.3198 521.386 83.2379C545.399 92.1918 565.362 104.101 579.319 113.767C586.301 118.602 591.789 122.882 595.537 125.96C597.386 127.477 598.813 128.703 599.788 129.559C600.762 128.703 602.189 127.477 604.038 125.96C607.786 122.882 613.274 118.602 620.256 113.767C634.213 104.101 654.176 92.1918 678.189 83.2379C726.244 65.3198 790.658 59.2097 855.449 106.748C859.293 109.569 861.575 114.364 861.575 119.374V531.548Z" fill="#4A5D3A"/>
<path d="M776.324 159.054C783.091 213.584 785.629 251.015 783.937 271.348C781.23 302.033 771.503 318.946 754.754 322.088C750.525 322.828 748.157 319.963 747.649 313.493C747.48 311.46 747.395 309.241 747.395 306.839C747.226 304.251 747.226 301.478 747.395 298.52C747.734 292.605 750.187 289.371 754.754 288.816C764.228 287.707 766.427 285.196 768.965 280.02C768.796 277.802 771.333 265.988 768.965 245.839C766.766 225.506 763.298 196.208 758.561 157.945C758.053 154.433 757.546 151.568 757.038 149.35C756.7 146.947 756.362 145.098 756.023 143.804C754.332 139.368 754.416 135.117 756.277 131.05L762.621 117.187C764.989 111.826 767.442 113.028 769.98 120.791C771.333 124.488 772.856 127.908 774.548 131.05C776.409 134.192 778.693 136.965 781.399 139.368C784.952 142.51 785.29 146.115 782.414 150.182L776.324 159.054Z" fill="#D4B87A"/>
<path d="M700.257 322.108C694.167 357.228 678.264 381.073 652.55 393.643C644.937 397.34 638.086 399.188 631.996 399.188C623.199 399.188 566.002 395.869 551.961 382.929C468.696 348.271 531.715 362.866 583.802 373.125C594.967 373.125 601.544 373.125 601.544 373.125C618.529 374.094 633.603 375.436 652.55 362.866C671.498 350.297 683.763 336.248 689.345 320.721C676.657 320.167 667.607 318.041 662.193 314.344C655.595 309.908 653.396 301.867 655.595 290.222C659.486 271.922 665.238 260.184 672.851 255.009C681.14 249.648 688.077 250.85 693.659 258.613C697.719 264.343 700.511 274.325 702.033 288.558C708.124 288.188 752.194 288.346 758.141 288.558C764.089 288.77 764.089 322.108 753.185 322.108C743.796 322.108 707.954 321.738 704.571 322.108H700.257ZM686.808 289.944C683.424 282.181 679.364 278.392 674.627 278.576C671.921 279.131 669.89 280.24 668.537 281.904C667.184 283.752 667.099 285.416 668.283 286.894C670.99 290.776 676.827 292.532 685.793 292.163C686.808 292.163 687.146 291.423 686.808 289.944Z" fill="#D4B87A"/>
<path d="M466.514 301.579C450.612 311.93 439.615 324.038 433.525 337.901C427.266 352.134 425.151 365.443 427.181 377.828C431.58 405.37 448.666 422.283 478.441 428.568C503.816 434.113 536.89 434.298 578.676 428.568C585.443 427.644 589.334 428.66 589.334 432.172C589.334 434.76 585.781 437.348 578.676 439.936C571.909 442.339 565.142 446.221 558.375 451.581C551.608 456.942 547.463 459.992 545.941 460.731C544.249 461.471 542.473 462.025 540.612 462.395C490.029 469.049 454.841 463.689 435.048 446.313C419.145 432.45 412.209 410.361 414.239 380.046C417.454 332.725 434.963 298.067 466.768 276.07C451.204 273.482 438.6 274.869 428.957 280.229C427.096 281.153 425.658 281.338 424.643 280.784C423.29 279.859 422.698 277.734 422.867 274.406C423.375 253.149 434.371 242.243 455.856 241.689C457.717 241.689 460.762 241.966 464.991 242.521C469.39 243.075 474.972 243.999 481.739 245.293C492.736 247.327 503.816 248.436 514.982 248.62C526.147 248.62 537.397 247.604 548.732 245.57C557.698 243.907 560.997 246.033 558.629 251.948L551.27 271.079C549.916 274.776 548.055 276.717 545.687 276.902C513.544 279.859 487.153 288.085 466.514 301.579Z" fill="#D4B87A"/>
<path d="M598.309 147.048C599.086 146.281 600.155 145.721 601.351 146.193C602.414 146.612 603.2 147.725 603.827 149.113C605.103 151.942 606.231 157.104 607.178 165.326L643.929 338.314C646.325 348.217 649.891 359.441 654.477 369.688C659.078 379.965 664.663 389.159 671.055 395.084C677.413 400.978 684.471 403.562 692.202 400.936C700.032 398.275 708.823 390.188 718.368 373.976C720.24 370.796 721.638 367.225 722.873 363.584C724.322 359.314 726.064 354.899 727.964 351.142C729.842 347.428 731.953 344.194 734.197 342.46C735.337 341.58 736.604 341.014 737.947 341.081C739.312 341.149 740.562 341.861 741.664 343.114C743.791 345.531 745.595 350.216 747.089 357.619C750.143 368.024 754.002 379.877 758.114 390.66C762.24 401.479 766.587 411.131 770.598 417.174C772.621 420.222 774.454 422.188 776.011 423.013C776.764 423.412 777.389 423.511 777.918 423.409C778.441 423.308 779.01 422.983 779.613 422.259C780.868 420.751 782.085 417.733 783.062 412.621C784.03 407.562 784.73 400.634 785.084 391.5L785.086 391.45L785.093 391.397C787.084 373.837 793.715 349.471 806.06 333.61C812.25 325.656 819.937 319.767 829.252 318.043C838.575 316.317 849.34 318.799 861.612 327.183C862.166 327.562 862.335 328.36 861.987 328.964C861.639 329.568 860.906 329.751 860.352 329.373C848.431 321.228 838.254 318.998 829.65 320.59C821.04 322.184 813.814 327.641 807.869 335.28C795.956 350.586 789.424 374.351 787.454 391.652C787.096 400.835 786.386 407.904 785.383 413.149C784.388 418.349 783.072 421.947 781.371 423.992C780.496 425.043 779.481 425.729 778.332 425.951C777.189 426.172 776.053 425.908 774.974 425.336C772.867 424.219 770.749 421.811 768.676 418.687C764.495 412.388 760.061 402.503 755.923 391.652C751.775 380.775 747.89 368.837 744.819 358.373L744.803 358.315L744.791 358.255C743.304 350.85 741.595 346.772 739.95 344.902C739.163 344.007 738.458 343.692 737.838 343.661C737.195 343.629 736.444 343.892 735.57 344.566C733.788 345.944 731.888 348.737 730.042 352.388C728.217 355.996 726.522 360.284 725.099 364.48C723.842 368.183 722.373 371.958 720.364 375.371C710.708 391.773 701.529 400.474 692.906 403.403C684.182 406.365 676.299 403.339 669.517 397.052C662.767 390.795 657.008 381.236 652.344 370.818C647.672 360.38 644.056 348.979 641.629 338.937L641.625 338.919L641.62 338.899L604.843 165.793L604.836 165.727C603.888 157.467 602.787 152.665 601.698 150.251C601.141 149.017 600.71 148.688 600.544 148.622C600.513 148.609 600.346 148.522 599.903 148.96C599.448 149.409 598.924 150.218 598.365 151.391C597.816 152.543 597.275 153.959 596.757 155.54C595.727 158.691 594.817 162.408 594.133 165.808L577.54 300.041C576.638 309.45 575.148 316.171 573.199 320.704C571.248 325.242 568.737 327.798 565.732 328.404C562.78 328.999 559.756 327.621 556.942 325.36C554.103 323.077 551.285 319.743 548.671 316.007C542.098 306.616 534.77 297.607 524.621 296.783C502.808 295.012 481.733 309.302 468.947 321.834C464.247 326.44 459.076 331.382 452.552 333.1C445.49 334.961 439.445 334.299 434.335 331.89C429.24 329.487 425.161 325.389 421.946 320.522C415.535 310.816 412.44 297.872 411.532 288.381L411.528 288.333L411.525 288.283C410.6 250.981 409.233 228.153 407.63 215.864C407.229 212.796 406.816 210.413 406.4 208.638C405.979 206.847 405.583 205.805 405.262 205.296C405.221 205.352 405.169 205.416 405.116 205.5C404.933 205.797 404.729 206.218 404.507 206.774C403.608 209.031 402.659 212.966 401.705 218.192C400.756 223.387 399.816 229.764 398.911 236.842C397.102 250.997 395.437 267.912 394.114 283.705C393.848 286.883 393.331 290.088 392.491 293.173C387.99 309.699 383.067 320.93 377.998 328.149C372.919 335.382 367.62 338.685 362.405 339.096C357.219 339.504 352.4 337.026 348.304 333.355C344.204 329.68 340.722 324.716 338.159 319.886C337.832 319.269 338.025 318.48 338.592 318.123C339.16 317.767 339.884 317.978 340.212 318.595C342.675 323.238 345.989 327.933 349.812 331.36C353.641 334.791 357.875 336.861 362.234 336.518C366.565 336.177 371.301 333.432 376.113 326.58C380.935 319.713 385.758 308.818 390.219 292.439C391.007 289.542 391.5 286.506 391.754 283.47C393.079 267.655 394.746 250.696 396.563 236.486C397.471 229.382 398.418 222.951 399.379 217.688C400.335 212.456 401.322 208.28 402.332 205.745C402.588 205.104 402.857 204.531 403.148 204.06C403.429 203.604 403.782 203.157 404.227 202.865C404.717 202.543 405.323 202.414 405.943 202.66C406.498 202.881 406.901 203.339 407.194 203.795C407.777 204.703 408.263 206.139 408.7 208C409.146 209.901 409.572 212.386 409.978 215.501C411.602 227.947 412.969 250.894 413.895 288.167C414.784 297.391 417.797 309.818 423.871 319.014C426.904 323.606 430.671 327.349 435.278 329.521C439.87 331.686 445.384 332.332 451.994 330.591C457.847 329.049 462.595 324.584 467.36 319.914C480.308 307.225 502.009 292.358 524.797 294.208C536.143 295.129 544.063 305.163 550.556 314.441C553.104 318.082 555.765 321.204 558.35 323.281C560.959 325.379 563.305 326.267 565.301 325.864C567.245 325.472 569.262 323.766 571.05 319.606C572.838 315.447 574.296 309.046 575.187 299.736L575.189 299.716L575.191 299.698L591.794 165.394L591.798 165.341L591.81 165.291C592.509 161.813 593.444 157.968 594.522 154.672C595.061 153.025 595.642 151.491 596.257 150.2C596.862 148.931 597.544 147.804 598.309 147.048Z" fill="#D4B87A"/>
<path d="M604.573 201.751C605.212 201.598 605.845 202.038 605.986 202.735L636.819 355.118C636.96 355.814 636.555 356.503 635.916 356.657C635.276 356.81 634.644 356.369 634.503 355.673L603.67 203.29C603.529 202.593 603.934 201.904 604.573 201.751ZM758.995 277.912C759.65 277.912 760.181 278.491 760.181 279.204C760.181 279.917 759.65 280.495 758.995 280.495H709.187C708.532 280.495 708.001 279.917 708.001 279.204C708.001 278.491 708.532 277.912 709.187 277.912H758.995Z" fill="#D4B87A"/>
<path d="M439.093 347.688C439.727 347.867 440.107 348.572 439.943 349.262C435.841 366.496 436.765 380.113 441.78 390.743C446.796 401.374 456.006 409.231 468.878 414.727C494.688 425.746 534.763 427.072 583.377 422.553C584.029 422.493 584.602 423.019 584.658 423.729C584.714 424.439 584.231 425.065 583.579 425.126C534.948 429.647 494.382 428.39 468.014 417.133C454.796 411.49 445.031 403.286 439.67 391.923C434.309 380.56 433.451 366.249 437.648 348.617C437.812 347.926 438.46 347.51 439.093 347.688Z" fill="#D4B87A"/>
<path d="M821.601 312.66C831.339 306.62 844.351 305.857 861.401 312.86C862.013 313.112 862.322 313.857 862.091 314.524C861.86 315.191 861.175 315.528 860.562 315.276C843.933 308.446 831.706 309.363 822.776 314.903C813.808 320.466 807.893 330.855 804.241 343.586C796.933 369.068 798.916 403.179 802.847 423.561C802.982 424.259 802.571 424.943 801.93 425.089C801.289 425.235 800.661 424.79 800.526 424.093C796.551 403.485 794.503 368.883 801.979 342.816C805.72 329.772 811.901 318.678 821.601 312.66ZM397.39 323.403C397.648 322.747 398.347 322.446 398.948 322.727C399.55 323.008 399.829 323.767 399.571 324.422C389.989 348.745 377.921 357.528 366.369 358.109C354.963 358.681 344.573 351.211 338.338 344.259C337.88 343.749 337.889 342.931 338.356 342.433C338.825 341.935 339.576 341.943 340.033 342.453C346.052 349.164 355.823 356.052 366.257 355.528C376.545 355.012 387.998 347.241 397.39 323.403Z" fill="#D4B87A"/>
<path d="M503.958 304.477C512.058 301.634 520.268 300.821 527.72 303.602C535.207 306.395 541.75 312.749 546.602 323.845C546.884 324.489 546.633 325.259 546.042 325.565C545.45 325.872 544.744 325.599 544.462 324.955C539.827 314.356 533.72 308.571 526.951 306.046C520.149 303.508 512.497 304.194 504.686 306.936C489.036 312.43 473.188 326.018 463.367 336.926C462.909 337.434 462.158 337.444 461.69 336.946C461.222 336.447 461.214 335.629 461.671 335.12C471.616 324.074 487.786 310.154 503.958 304.477Z" fill="#D4B87A"/>
<path d="M784.835 161.717C785.475 161.567 786.107 162.011 786.245 162.708C790.803 185.799 795.62 221.673 795.253 254.265C795.07 270.557 793.591 286.098 790.102 298.836C786.619 311.548 781.076 321.676 772.619 326.822C772.047 327.17 771.324 326.948 771.005 326.325C770.685 325.703 770.889 324.915 771.461 324.567C779.132 319.899 784.422 310.536 787.83 298.097C791.23 285.682 792.699 270.407 792.881 254.232C793.245 221.89 788.458 186.221 783.924 163.253C783.787 162.556 784.195 161.867 784.835 161.717Z" fill="#D4B87A"/>
</svg>
