<svg width="512" height="512" viewBox="0 0 512 512" fill="none" xmlns="http://www.w3.org/2000/svg">
<path d="M255.762 110.405C255.762 110.405 154.528 15.9145 51.9712 91.1614C49.4262 93.0287 47.9005 96.2208 47.9005 99.5625V429.825C47.9005 438.241 56.7652 443.216 63.4555 439.002C161.951 376.964 255.762 449.932 255.762 449.932C255.762 449.932 349.574 376.964 448.069 439.002C454.76 443.216 463.625 438.241 463.625 429.825V99.5625C463.625 96.2208 462.099 93.0287 459.554 91.1614C356.997 15.9145 255.762 110.405 255.762 110.405ZM255.762 110.405V449.932Z" fill="#4A5D3A"/>
<path d="M461.724 99.5619C461.724 96.8929 460.5 94.3505 458.491 92.8764C407.85 55.721 357.567 60.4456 319.816 74.5218C300.929 81.564 285.205 90.9414 274.203 98.5615C268.704 102.37 264.39 105.735 261.456 108.143C259.99 109.347 258.869 110.312 258.118 110.972C257.946 111.123 257.795 111.259 257.663 111.377V446.071C258.064 445.792 258.502 445.486 258.979 445.162C261.773 443.262 265.866 440.627 271.081 437.664C281.507 431.74 296.441 424.495 314.485 419.204C350.584 408.619 399.215 405.839 449.02 437.209C454.595 440.72 461.724 436.46 461.724 429.824V99.5619ZM49.8009 429.824C49.8012 436.46 56.93 440.72 62.5046 437.209C112.31 405.839 160.941 408.619 197.04 419.204C215.084 424.495 230.018 431.74 240.444 437.664C245.659 440.627 249.752 443.262 252.546 445.162C253.023 445.486 253.461 445.792 253.862 446.071V111.377C253.73 111.259 253.578 111.123 253.407 110.972C252.656 110.312 251.535 109.347 250.069 108.143C247.135 105.735 242.821 102.37 237.322 98.5615C226.319 90.9414 210.596 81.564 191.709 74.5218C153.958 60.4456 103.675 55.7211 53.0339 92.8764C51.0249 94.3505 49.8009 96.8929 49.8009 99.5619V429.824ZM465.525 429.824C465.525 440.021 454.924 445.709 447.118 440.792C398.429 410.125 350.905 412.81 315.475 423.199C297.755 428.395 283.08 435.515 272.839 441.334C267.72 444.242 263.713 446.823 260.992 448.672C259.632 449.596 258.593 450.337 257.899 450.845C257.551 451.098 257.29 451.294 257.117 451.425C257.031 451.49 256.966 451.538 256.924 451.57C256.903 451.586 256.887 451.599 256.878 451.606C256.874 451.61 256.87 451.613 256.869 451.615C256.208 452.128 255.319 452.128 254.658 451.615C254.656 451.613 254.651 451.61 254.647 451.606C254.638 451.599 254.622 451.586 254.601 451.57C254.559 451.538 254.494 451.49 254.408 451.425C254.235 451.294 253.973 451.098 253.626 450.845C252.932 450.337 251.892 449.596 250.533 448.672C247.812 446.823 243.805 444.242 238.686 441.334C228.445 435.515 213.77 428.395 196.05 423.199C160.62 412.81 113.096 410.125 64.4069 440.792C56.601 445.709 46.0002 440.021 46 429.824V99.5619C46 95.5477 47.8283 91.7054 50.9089 89.4448C102.824 51.3541 154.437 56.2499 192.942 70.6071C212.183 77.7816 228.178 87.3239 239.362 95.0692C244.956 98.9436 249.353 102.373 252.357 104.839C253.838 106.055 254.981 107.037 255.762 107.723C256.544 107.037 257.687 106.055 259.168 104.839C262.172 102.373 266.569 98.9436 272.163 95.0692C283.347 87.3239 299.342 77.7816 318.583 70.6071C357.088 56.2499 408.701 51.3541 460.616 89.4448C463.697 91.7054 465.525 95.5477 465.525 99.5619V429.824Z" fill="#4A5D3A"/>
<path d="M397.216 131.359C402.639 175.051 404.672 205.044 403.316 221.336C401.147 245.923 393.353 259.475 379.933 261.993C376.544 262.585 374.647 260.29 374.24 255.106C374.105 253.476 374.037 251.699 374.037 249.774C373.901 247.7 373.901 245.478 374.037 243.109C374.308 238.369 376.273 235.777 379.933 235.333C387.524 234.444 389.286 232.432 391.32 228.285C391.184 226.507 393.218 217.041 391.32 200.897C389.558 184.605 386.779 161.129 382.983 130.47C382.577 127.656 382.17 125.36 381.763 123.583C381.492 121.657 381.221 120.176 380.95 119.139C379.594 115.585 379.662 112.178 381.153 108.92L386.237 97.8113C388.134 93.516 390.1 94.4788 392.133 100.699C393.218 103.662 394.438 106.402 395.793 108.92C397.284 111.438 399.114 113.659 401.283 115.585C404.13 118.103 404.401 120.991 402.096 124.249L397.216 131.359Z" fill="#D4B87A"/>
<path d="M336.266 262.008C331.386 290.149 318.644 309.256 298.04 319.327C291.94 322.29 286.45 323.771 281.57 323.771C274.522 323.771 228.692 321.111 217.441 310.743C150.723 282.972 201.218 294.667 242.954 302.887C251.901 302.887 257.171 302.887 257.171 302.887C270.78 303.663 282.858 304.738 298.04 294.667C313.222 284.595 323.05 273.339 327.523 260.897C317.356 260.453 310.104 258.75 305.767 255.788C300.48 252.233 298.718 245.79 300.48 236.459C303.598 221.796 308.207 212.391 314.307 208.244C320.949 203.949 326.506 204.911 330.98 211.132C334.233 215.723 336.469 223.722 337.689 235.126C342.569 234.83 377.882 234.956 382.647 235.126C387.413 235.296 387.413 262.008 378.676 262.008C371.153 262.008 342.434 261.712 339.723 262.008H336.266ZM325.49 236.237C322.779 230.016 319.525 226.98 315.73 227.128C313.561 227.572 311.934 228.461 310.85 229.794C309.765 231.275 309.698 232.608 310.647 233.793C312.815 236.903 317.492 238.31 324.676 238.014C325.49 238.014 325.761 237.422 325.49 236.237Z" fill="#D4B87A"/>
<path d="M148.975 245.559C136.233 253.853 127.422 263.555 122.542 274.663C117.526 286.068 115.832 296.732 117.459 306.655C120.983 328.724 134.674 342.276 158.531 347.312C178.864 351.755 205.365 351.903 238.847 347.312C244.269 346.571 247.387 347.386 247.387 350.2C247.387 352.273 244.54 354.347 238.847 356.421C233.425 358.346 228.002 361.456 222.58 365.752C217.158 370.047 213.837 372.491 212.617 373.083C211.262 373.676 209.838 374.12 208.347 374.416C167.817 379.748 139.622 375.453 123.762 361.53C111.02 350.422 105.462 332.723 107.089 308.432C109.664 270.516 123.694 242.745 149.178 225.12C136.707 223.046 126.608 224.157 118.882 228.452C117.391 229.193 116.239 229.341 115.425 228.897C114.341 228.156 113.866 226.453 114.002 223.787C114.409 206.754 123.22 198.015 140.435 197.571C141.926 197.571 144.366 197.793 147.755 198.238C151.279 198.682 155.752 199.422 161.175 200.459C169.986 202.088 178.864 202.977 187.811 203.125C196.757 203.125 205.772 202.311 214.854 200.681C222.038 199.348 224.681 201.052 222.784 205.791L216.887 221.121C215.803 224.083 214.311 225.638 212.414 225.786C186.659 228.156 165.512 234.747 148.975 245.559Z" fill="#D4B87A"/>
<path d="M254.578 121.738C255.2 121.124 256.057 120.675 257.015 121.053C257.867 121.389 258.497 122.281 258.999 123.393C260.021 125.66 260.925 129.796 261.684 136.384L291.132 274.994C293.051 282.929 295.909 291.922 299.584 300.133C303.27 308.367 307.745 315.735 312.867 320.482C317.962 325.205 323.617 327.275 329.811 325.171C336.086 323.039 343.13 316.559 350.777 303.568C352.277 301.021 353.397 298.16 354.387 295.242C355.548 291.82 356.944 288.283 358.466 285.272C359.971 282.297 361.663 279.705 363.461 278.316C364.374 277.61 365.389 277.157 366.465 277.211C367.56 277.266 368.561 277.836 369.444 278.84C371.148 280.777 372.594 284.53 373.791 290.462C376.238 298.799 379.33 308.297 382.625 316.937C385.931 325.606 389.414 333.34 392.628 338.182C394.249 340.624 395.718 342.199 396.965 342.861C397.568 343.18 398.069 343.26 398.493 343.178C398.912 343.097 399.368 342.837 399.851 342.256C400.857 341.048 401.832 338.63 402.615 334.534C403.39 330.48 403.951 324.929 404.235 317.61L404.237 317.57L404.242 317.527C405.838 303.457 411.151 283.934 421.042 271.225C426.002 264.852 432.161 260.133 439.625 258.751C447.096 257.368 455.721 259.357 465.554 266.075C465.999 266.379 466.134 267.018 465.855 267.502C465.576 267.986 464.989 268.133 464.545 267.829C454.993 261.304 446.838 259.516 439.945 260.792C433.045 262.069 427.255 266.442 422.492 272.562C412.946 284.827 407.713 303.869 406.134 317.732C405.847 325.09 405.278 330.754 404.474 334.957C403.678 339.123 402.623 342.006 401.26 343.645C400.559 344.487 399.745 345.037 398.825 345.215C397.909 345.392 396.999 345.18 396.134 344.722C394.446 343.827 392.749 341.897 391.088 339.395C387.737 334.347 384.185 326.426 380.869 317.732C377.546 309.017 374.433 299.451 371.972 291.067L371.959 291.02L371.95 290.972C370.758 285.039 369.389 281.771 368.071 280.273C367.44 279.556 366.875 279.303 366.378 279.278C365.863 279.252 365.261 279.463 364.561 280.004C363.133 281.107 361.61 283.345 360.131 286.271C358.669 289.162 357.311 292.598 356.171 295.959C355.164 298.927 353.987 301.952 352.377 304.686C344.64 317.829 337.285 324.8 330.375 327.147C323.385 329.521 317.069 327.096 311.634 322.059C306.226 317.045 301.611 309.386 297.875 301.038C294.131 292.675 291.234 283.539 289.289 275.493L289.285 275.479L289.282 275.463L259.814 136.758L259.808 136.705C259.048 130.086 258.166 126.238 257.293 124.305C256.847 123.316 256.502 123.052 256.369 122.999C256.344 122.989 256.21 122.919 255.855 123.27C255.491 123.63 255.07 124.278 254.623 125.218C254.183 126.141 253.749 127.276 253.335 128.543C252.509 131.067 251.78 134.045 251.232 136.77L237.936 244.327C237.213 251.866 236.019 257.251 234.458 260.883C232.895 264.519 230.883 266.568 228.475 267.053C226.109 267.53 223.686 266.426 221.431 264.614C219.157 262.785 216.899 260.114 214.804 257.12C209.538 249.595 203.666 242.376 195.534 241.716C178.055 240.298 161.169 251.748 150.924 261.789C147.158 265.479 143.015 269.439 137.787 270.816C132.128 272.307 127.285 271.776 123.191 269.846C119.108 267.921 115.839 264.638 113.263 260.738C108.127 252.961 105.647 242.589 104.919 234.984L104.916 234.946L104.914 234.905C104.172 205.016 103.077 186.725 101.792 176.879C101.471 174.42 101.14 172.51 100.807 171.088C100.47 169.654 100.152 168.818 99.8953 168.411C99.8624 168.455 99.8202 168.507 99.7784 168.574C99.6317 168.812 99.468 169.149 99.2903 169.595C98.5695 171.404 97.8095 174.557 97.0446 178.744C96.2842 182.907 95.5314 188.016 94.8064 193.687C93.3565 205.029 92.0225 218.583 90.9628 231.237C90.7495 233.783 90.3349 236.352 89.6618 238.824C86.0557 252.065 82.1112 261.065 78.0494 266.849C73.9797 272.645 69.7332 275.291 65.5554 275.62C61.4 275.947 57.5379 273.961 54.2566 271.02C50.9709 268.075 48.1809 264.098 46.1277 260.228C45.8652 259.734 46.0204 259.102 46.4748 258.816C46.9291 258.53 47.5095 258.699 47.772 259.194C49.7461 262.914 52.4013 266.676 55.4648 269.422C58.5324 272.171 61.9252 273.829 65.418 273.555C68.8881 273.282 72.6834 271.082 76.5387 265.592C80.4024 260.09 84.2671 251.359 87.8412 238.236C88.4733 235.914 88.8679 233.482 89.0716 231.049C90.1329 218.377 91.469 204.789 92.9245 193.402C93.6521 187.71 94.4109 182.557 95.1813 178.34C95.9471 174.148 96.7381 170.801 97.5476 168.77C97.7524 168.257 97.968 167.798 98.2008 167.42C98.4265 167.054 98.7087 166.697 99.0657 166.462C99.4584 166.205 99.944 166.101 100.441 166.299C100.885 166.475 101.208 166.843 101.443 167.208C101.91 167.935 102.3 169.086 102.649 170.577C103.007 172.1 103.348 174.091 103.674 176.588C104.975 186.56 106.07 204.947 106.812 234.812C107.525 242.204 109.939 252.161 114.806 259.529C117.236 263.209 120.255 266.208 123.946 267.949C127.626 269.683 132.043 270.2 137.34 268.805C142.03 267.57 145.835 263.992 149.652 260.251C160.027 250.083 177.415 238.171 195.675 239.653C204.766 240.391 211.112 248.431 216.315 255.865C218.356 258.782 220.489 261.284 222.56 262.949C224.651 264.629 226.53 265.341 228.129 265.018C229.687 264.704 231.303 263.337 232.736 260.004C234.168 256.671 235.337 251.542 236.05 244.083L236.052 244.066L236.054 244.052L249.357 136.439L249.361 136.396L249.37 136.356C249.93 133.569 250.68 130.488 251.544 127.847C251.975 126.527 252.441 125.298 252.934 124.264C253.418 123.247 253.965 122.344 254.578 121.738Z" fill="#D4B87A"/>
<path d="M259.597 165.57C260.109 165.447 260.616 165.8 260.729 166.358L285.435 288.458C285.548 289.016 285.224 289.568 284.711 289.691C284.199 289.814 283.692 289.461 283.579 288.903L258.873 166.803C258.76 166.245 259.085 165.693 259.597 165.57ZM383.33 226.596C383.855 226.596 384.281 227.059 384.281 227.631C384.281 228.202 383.855 228.665 383.33 228.665H343.421C342.896 228.665 342.471 228.202 342.471 227.631C342.471 227.059 342.896 226.596 343.421 226.596H383.33Z" fill="#D4B87A"/>
<path d="M127.003 282.505C127.511 282.649 127.815 283.213 127.684 283.766C124.397 297.576 125.137 308.486 129.156 317.004C133.175 325.522 140.555 331.818 150.868 336.221C171.549 345.05 203.66 346.113 242.613 342.492C243.136 342.444 243.595 342.865 243.64 343.434C243.684 344.003 243.298 344.505 242.775 344.554C203.809 348.176 171.304 347.169 150.176 338.149C139.585 333.628 131.761 327.054 127.465 317.949C123.169 308.844 122.482 297.377 125.845 283.249C125.977 282.696 126.495 282.362 127.003 282.505Z" fill="#D4B87A"/>
<path d="M433.495 254.438C441.298 249.598 451.724 248.987 465.385 254.598C465.876 254.8 466.124 255.397 465.938 255.932C465.753 256.466 465.204 256.736 464.714 256.534C451.389 251.061 441.592 251.796 434.436 256.235C427.251 260.693 422.511 269.017 419.585 279.218C413.729 299.636 415.318 326.968 418.468 343.299C418.576 343.859 418.247 344.407 417.733 344.524C417.22 344.641 416.717 344.285 416.608 343.726C413.423 327.213 411.782 299.488 417.772 278.601C420.77 268.15 425.723 259.26 433.495 254.438ZM93.5871 263.046C93.794 262.521 94.3539 262.279 94.8361 262.504C95.3179 262.73 95.5419 263.337 95.3353 263.862C87.6571 283.352 77.9878 290.39 68.7308 290.855C59.5921 291.314 51.2671 285.328 46.2706 279.757C45.9041 279.349 45.9107 278.694 46.2854 278.294C46.6608 277.895 47.2624 277.902 47.6291 278.31C52.4516 283.687 60.2812 289.207 68.6418 288.787C76.8846 288.373 86.0618 282.147 93.5871 263.046Z" fill="#D4B87A"/>
<path d="M178.977 247.881C185.467 245.603 192.046 244.952 198.017 247.18C204.016 249.418 209.259 254.509 213.147 263.4C213.372 263.916 213.171 264.533 212.698 264.779C212.224 265.024 211.657 264.806 211.432 264.29C207.718 255.797 202.825 251.162 197.401 249.138C191.95 247.105 185.819 247.655 179.56 249.852C167.021 254.253 154.322 265.141 146.453 273.881C146.085 274.289 145.484 274.297 145.109 273.897C144.734 273.498 144.727 272.842 145.094 272.434C153.062 263.584 166.019 252.43 178.977 247.881Z" fill="#D4B87A"/>
<path d="M404.035 133.492C404.548 133.372 405.055 133.728 405.165 134.286C408.818 152.788 412.677 181.533 412.383 207.648C412.236 220.702 411.051 233.155 408.256 243.361C405.465 253.547 401.023 261.662 394.247 265.786C393.789 266.065 393.21 265.886 392.954 265.388C392.698 264.889 392.861 264.258 393.319 263.979C399.466 260.238 403.704 252.736 406.435 242.769C409.16 232.821 410.337 220.582 410.483 207.622C410.774 181.707 406.939 153.126 403.306 134.723C403.196 134.164 403.522 133.612 404.035 133.492Z" fill="#D4B87A"/>
</svg>
