<svg width="400" height="120" viewBox="0 0 400 120" fill="none" xmlns="http://www.w3.org/2000/svg">
<rect width="400" height="120" fill="white"/>
<path d="M276.371 95.672V23H285.299V54.008L283.667 53.144C284.947 49.88 286.995 47.352 289.811 45.56C292.691 43.704 296.051 42.776 299.891 42.776C303.603 42.776 306.899 43.608 309.779 45.272C312.723 46.936 315.027 49.24 316.691 52.184C318.419 55.128 319.283 58.456 319.283 62.168V95.672H310.259V65.048C310.259 62.168 309.715 59.736 308.627 57.752C307.603 55.768 306.163 54.232 304.307 53.144C302.451 51.992 300.307 51.416 297.875 51.416C295.507 51.416 293.363 51.992 291.443 53.144C289.523 54.232 288.019 55.8 286.931 57.848C285.843 59.832 285.299 62.232 285.299 65.048V95.672H276.371Z" fill="#4A5D3A"/>
<path d="M205.123 95.6737L187.363 43.9297H197.251L211.363 87.2257L207.907 87.1297L221.731 43.9297H230.179L244.003 87.1297L240.547 87.2257L254.755 43.9297H264.547L246.787 95.6737H238.243L224.611 52.4737H227.299L213.667 95.6737H205.123Z" fill="#4A5D3A"/>
<path d="M149.327 96.8253C145.935 96.8253 142.927 96.2173 140.303 95.0013C137.743 93.7213 135.727 91.9933 134.255 89.8173C132.783 87.5773 132.047 85.0173 132.047 82.1373C132.047 79.3853 132.623 76.9213 133.775 74.7453C134.991 72.5053 136.847 70.6173 139.343 69.0813C141.903 67.5453 145.103 66.4573 148.943 65.8173L168.143 62.6493V70.1373L150.959 73.0173C147.631 73.5933 145.199 74.6493 143.663 76.1853C142.191 77.7213 141.455 79.6093 141.455 81.8493C141.455 83.9613 142.287 85.7213 143.951 87.1293C145.679 88.5373 147.823 89.2413 150.383 89.2413C153.647 89.2413 156.463 88.5693 158.831 87.2253C161.263 85.8173 163.151 83.9293 164.495 81.5613C165.903 79.1933 166.607 76.5693 166.607 73.6893V60.5373C166.607 57.7213 165.551 55.4493 163.439 53.7213C161.391 51.9293 158.671 51.0333 155.279 51.0333C152.335 51.0333 149.711 51.8013 147.407 53.3373C145.167 54.8093 143.503 56.7933 142.415 59.2893L134.639 55.2573C135.599 52.8893 137.135 50.7773 139.247 48.9213C141.359 47.0013 143.823 45.4973 146.639 44.4093C149.455 43.3213 152.399 42.7773 155.471 42.7773C159.439 42.7773 162.927 43.5453 165.935 45.0813C168.943 46.5533 171.279 48.6333 172.943 51.3213C174.671 53.9453 175.535 57.0173 175.535 60.5373V95.6733H166.799V85.8813L168.431 86.4573C167.343 88.5053 165.871 90.2973 164.015 91.8333C162.159 93.3693 159.983 94.5853 157.487 95.4813C154.991 96.3773 152.271 96.8253 149.327 96.8253Z" fill="#4A5D3A"/>
<path d="M80 95.6723V24.1523H89.408V87.0323H120.8V95.6723H80Z" fill="#4A5D3A"/>
</svg>
