<svg width="800" height="200" viewBox="0 0 800 200" fill="none" xmlns="http://www.w3.org/2000/svg">
<path d="M206.42 51.8303C206.42 51.8303 172.434 20.2799 138.005 45.4048C137.15 46.0282 136.638 47.0941 136.638 48.2099V158.484C136.638 161.294 139.614 162.955 141.86 161.548C174.926 140.834 206.42 165.198 206.42 165.198C206.42 165.198 237.914 140.834 270.98 161.548C273.227 162.955 276.203 161.294 276.203 158.484V48.2099C276.203 47.0941 275.69 46.0282 274.836 45.4048C240.406 20.2799 206.42 51.8303 206.42 51.8303ZM206.42 51.8303V165.198Z" fill="#4A5D3A"/>
<path d="M275.565 48.2097C275.565 47.3185 275.154 46.4696 274.479 45.9774C257.478 33.5713 240.598 35.1488 227.924 39.8488C221.583 42.2002 216.305 45.3313 212.611 47.8757C210.765 49.1473 209.317 50.2709 208.332 51.0749C207.839 51.4769 207.463 51.7992 207.211 52.0196C207.153 52.0699 207.103 52.1152 207.058 52.1546V163.909C207.193 163.815 207.34 163.713 207.5 163.605C208.438 162.971 209.812 162.091 211.563 161.102C215.063 159.124 220.077 156.705 226.134 154.938C238.253 151.403 254.579 150.475 271.3 160.95C273.171 162.122 275.564 160.7 275.565 158.484V48.2097ZM137.276 158.484C137.276 160.7 139.669 162.122 141.541 160.95C158.261 150.475 174.587 151.403 186.706 154.938C192.764 156.705 197.777 159.124 201.278 161.102C203.028 162.091 204.402 162.971 205.341 163.605C205.501 163.713 205.648 163.815 205.782 163.909V52.1546C205.738 52.1152 205.687 52.0699 205.63 52.0196C205.377 51.7992 205.001 51.4769 204.509 51.0749C203.524 50.2709 202.076 49.1473 200.23 47.8757C196.536 45.3313 191.257 42.2002 184.917 39.8488C172.243 35.1488 155.362 33.5713 138.361 45.9774C137.687 46.4696 137.276 47.3185 137.276 48.2097V158.484ZM276.841 158.484C276.84 161.889 273.282 163.788 270.661 162.146C254.315 151.906 238.361 152.803 226.466 156.272C220.518 158.007 215.591 160.384 212.153 162.327C210.435 163.298 209.089 164.16 208.176 164.777C207.719 165.086 207.371 165.333 207.137 165.503C207.021 165.587 206.933 165.653 206.875 165.696C206.846 165.718 206.824 165.734 206.81 165.745C206.803 165.75 206.798 165.755 206.795 165.757C206.793 165.758 206.792 165.759 206.792 165.76C206.57 165.931 206.271 165.931 206.05 165.76C206.049 165.759 206.047 165.758 206.046 165.757C206.043 165.755 206.037 165.75 206.03 165.745C206.016 165.734 205.994 165.718 205.965 165.696C205.907 165.653 205.82 165.587 205.703 165.503C205.47 165.333 205.121 165.086 204.664 164.777C203.751 164.16 202.406 163.298 200.688 162.327C197.249 160.384 192.323 158.007 186.374 156.272C174.48 152.803 158.525 151.906 142.179 162.146C139.559 163.788 136 161.889 136 158.484V48.2097C136 46.8693 136.614 45.5864 137.648 44.8316C155.077 32.1131 172.404 33.7478 185.33 38.5417C191.79 40.9373 197.16 44.1234 200.914 46.7096C202.792 48.0032 204.269 49.1483 205.277 49.9716C205.774 50.3776 206.158 50.7055 206.42 50.9346C206.683 50.7055 207.066 50.3776 207.564 49.9716C208.572 49.1483 210.048 48.0032 211.926 46.7096C215.681 44.1234 221.051 40.9373 227.51 38.5417C240.437 33.7478 257.764 32.1131 275.193 44.8316C276.227 45.5864 276.841 46.8693 276.841 48.2097V158.484Z" fill="#4A5D3A"/>
<path d="M253.911 58.8262C255.731 73.4152 256.414 83.4297 255.959 88.8696C255.23 97.0791 252.614 101.604 248.109 102.445C246.971 102.643 246.334 101.876 246.197 100.145C246.152 99.6012 246.129 99.0078 246.129 98.3649C246.083 97.6725 246.083 96.9307 246.129 96.1394C246.22 94.5569 246.88 93.6914 248.109 93.5431C250.657 93.2463 251.249 92.5745 251.931 91.1897C251.886 90.5963 252.568 87.4355 251.931 82.045C251.34 76.605 250.407 68.7665 249.132 58.5294C248.996 57.5898 248.859 56.8233 248.723 56.2298C248.632 55.5869 248.541 55.0924 248.45 54.7462C247.995 53.5593 248.018 52.4218 248.518 51.3338L250.225 47.6248C250.862 46.1906 251.522 46.5121 252.204 48.5891C252.568 49.5782 252.978 50.4931 253.433 51.3338C253.933 52.1746 254.548 52.9164 255.276 53.5593C256.232 54.4 256.323 55.3644 255.549 56.4524L253.911 58.8262Z" fill="#D4B87A"/>
<path d="M233.449 102.45C231.811 111.846 227.533 118.226 220.616 121.589C218.568 122.578 216.725 123.072 215.087 123.072C212.72 123.072 197.335 122.184 193.558 118.722C171.159 109.45 188.111 113.355 202.123 116.099C205.126 116.099 206.895 116.099 206.895 116.099C211.464 116.359 215.519 116.718 220.616 113.355C225.713 109.992 229.012 106.233 230.514 102.079C227.101 101.931 224.666 101.362 223.21 100.373C221.435 99.186 220.843 97.0348 221.435 93.9192C222.482 89.0232 224.029 85.8828 226.077 84.4981C228.307 83.0639 230.172 83.3854 231.674 85.4625C232.766 86.9956 233.517 89.6661 233.927 93.4741C235.565 93.3752 247.42 93.4174 249.02 93.4741C250.619 93.5308 250.619 102.45 247.686 102.45C245.161 102.45 235.519 102.351 234.609 102.45H233.449ZM229.831 93.845C228.921 91.7679 227.829 90.7541 226.554 90.8035C225.826 90.9519 225.28 91.2486 224.916 91.6937C224.552 92.1883 224.529 92.6333 224.848 93.029C225.576 94.0675 227.146 94.5373 229.558 94.4384C229.831 94.4384 229.922 94.2406 229.831 93.845Z" fill="#D4B87A"/>
<path d="M170.572 96.9577C166.295 99.7271 163.337 102.966 161.699 106.675C160.015 110.483 159.446 114.044 159.992 117.358C161.175 124.726 165.771 129.251 173.781 130.933C180.607 132.416 189.503 132.466 200.744 130.933C202.564 130.685 203.611 130.957 203.611 131.897C203.611 132.589 202.655 133.282 200.744 133.974C198.923 134.617 197.103 135.656 195.283 137.09C193.463 138.524 192.348 139.34 191.938 139.538C191.483 139.736 191.005 139.884 190.505 139.983C176.898 141.763 167.432 140.329 162.108 135.68C157.83 131.971 155.965 126.062 156.511 117.951C157.375 105.291 162.085 96.018 170.641 90.133C166.454 89.4406 163.064 89.8115 160.47 91.2457C159.969 91.493 159.582 91.5424 159.309 91.3941C158.945 91.1468 158.786 90.5781 158.832 89.6879C158.968 84.0006 161.926 81.0828 167.705 80.9345C168.206 80.9345 169.025 81.0087 170.163 81.157C171.346 81.3054 172.848 81.5527 174.668 81.8988C177.626 82.4428 180.607 82.7396 183.61 82.789C186.614 82.789 189.64 82.517 192.689 81.973C195.101 81.5279 195.988 82.0967 195.351 83.6792L193.372 88.7977C193.007 89.7868 192.507 90.3061 191.87 90.3555C183.223 91.1468 176.124 93.3475 170.572 96.9577Z" fill="#D4B87A"/>
<path d="M206.023 55.611C206.231 55.4059 206.519 55.2561 206.841 55.3822C207.127 55.4944 207.338 55.7922 207.507 56.1637C207.85 56.9205 208.153 58.3015 208.408 60.5013L218.294 106.783C218.939 109.433 219.898 112.435 221.132 115.177C222.369 117.926 223.872 120.386 225.591 121.972C227.301 123.548 229.2 124.24 231.279 123.537C233.386 122.825 235.751 120.662 238.318 116.324C238.822 115.473 239.198 114.518 239.53 113.544C239.92 112.401 240.388 111.22 240.899 110.215C241.405 109.221 241.973 108.356 242.576 107.892C242.883 107.657 243.224 107.505 243.585 107.523C243.952 107.542 244.288 107.732 244.585 108.067C245.157 108.714 245.642 109.967 246.044 111.948C246.866 114.732 247.904 117.903 249.01 120.788C250.12 123.682 251.289 126.265 252.368 127.882C252.912 128.697 253.405 129.223 253.824 129.444C254.027 129.55 254.195 129.577 254.337 129.55C254.478 129.523 254.631 129.436 254.793 129.242C255.13 128.839 255.458 128.031 255.721 126.663C255.981 125.31 256.169 123.456 256.265 121.013L256.265 120.999L256.267 120.985C256.803 116.287 258.586 109.768 261.907 105.524C263.572 103.397 265.64 101.821 268.146 101.36C270.654 100.898 273.549 101.562 276.85 103.805C277 103.906 277.045 104.12 276.951 104.281C276.858 104.443 276.661 104.492 276.511 104.391C273.305 102.212 270.567 101.615 268.253 102.041C265.937 102.467 263.993 103.928 262.394 105.971C259.189 110.066 257.432 116.425 256.902 121.053C256.806 123.51 256.615 125.401 256.345 126.805C256.077 128.196 255.723 129.158 255.266 129.706C255.03 129.987 254.757 130.17 254.448 130.23C254.141 130.289 253.835 130.218 253.545 130.065C252.978 129.766 252.409 129.122 251.851 128.286C250.726 126.601 249.533 123.956 248.42 121.053C247.305 118.143 246.26 114.949 245.433 112.15L245.429 112.134L245.426 112.118C245.026 110.137 244.566 109.046 244.124 108.546C243.912 108.306 243.722 108.222 243.556 108.214C243.383 108.205 243.18 108.275 242.946 108.456C242.466 108.824 241.955 109.572 241.458 110.548C240.968 111.514 240.512 112.661 240.129 113.783C239.791 114.774 239.396 115.784 238.855 116.697C236.258 121.086 233.788 123.413 231.469 124.197C229.122 124.99 227.002 124.18 225.177 122.498C223.362 120.824 221.812 118.267 220.558 115.479C219.301 112.687 218.328 109.636 217.676 106.95L217.674 106.945L217.673 106.94L207.78 60.6262L207.778 60.6086C207.523 58.3985 207.227 57.1138 206.934 56.468C206.784 56.1379 206.668 56.0497 206.624 56.0321C206.615 56.0288 206.571 56.0054 206.451 56.1225C206.329 56.2427 206.188 56.4592 206.038 56.773C205.89 57.0812 205.744 57.46 205.605 57.8831C205.328 58.726 205.083 59.7205 204.899 60.6302L200.436 96.5435C200.193 99.0607 199.792 100.859 199.268 102.071C198.743 103.286 198.068 103.969 197.259 104.132C196.465 104.291 195.652 103.922 194.895 103.317C194.131 102.707 193.373 101.815 192.67 100.815C190.902 98.3024 188.931 95.8921 186.201 95.6716C180.333 95.198 174.664 99.0212 171.224 102.374C169.96 103.606 168.569 104.928 166.814 105.388C164.915 105.886 163.288 105.709 161.914 105.064C160.543 104.422 159.446 103.325 158.581 102.023C156.857 99.4262 156.024 95.9632 155.78 93.4238L155.779 93.411L155.778 93.3975C155.529 83.4176 155.162 77.3102 154.73 74.0225C154.622 73.2016 154.511 72.5638 154.399 72.0891C154.286 71.61 154.18 71.3311 154.093 71.195C154.082 71.2099 154.068 71.227 154.054 71.2497C154.005 71.3291 153.95 71.4416 153.89 71.5904C153.648 72.1944 153.393 73.2471 153.136 74.6453C152.881 76.0352 152.628 77.7411 152.385 79.6348C151.898 83.422 151.45 87.9474 151.095 92.1727C151.023 93.0229 150.884 93.8806 150.658 94.706C149.447 99.1273 148.123 102.132 146.759 104.064C145.393 105.999 143.968 106.882 142.565 106.992C141.17 107.101 139.873 106.438 138.772 105.456C137.669 104.473 136.732 103.145 136.043 101.853C135.955 101.688 136.007 101.477 136.159 101.381C136.312 101.286 136.507 101.342 136.595 101.507C137.258 102.75 138.149 104.006 139.177 104.923C140.207 105.841 141.346 106.394 142.519 106.303C143.684 106.211 144.958 105.477 146.252 103.644C147.549 101.807 148.847 98.8915 150.047 94.5096C150.259 93.7345 150.391 92.9223 150.46 92.11C150.816 87.8786 151.265 83.3416 151.753 79.5397C151.997 77.639 152.252 75.9185 152.511 74.5103C152.768 73.1106 153.034 71.9932 153.305 71.3151C153.374 71.1435 153.446 70.9904 153.525 70.8644C153.6 70.7422 153.695 70.6228 153.815 70.5445C153.947 70.4584 154.11 70.4239 154.277 70.4898C154.426 70.5488 154.534 70.6714 154.613 70.7935C154.77 71.0363 154.901 71.4204 155.018 71.9184C155.138 72.4269 155.253 73.0918 155.362 73.9253C155.799 77.255 156.167 83.3943 156.416 93.3665C156.655 95.8345 157.465 99.159 159.099 101.619C159.915 102.848 160.928 103.85 162.168 104.431C163.403 105.01 164.886 105.183 166.664 104.717C168.239 104.304 169.516 103.11 170.798 101.86C174.281 98.4653 180.118 94.4879 186.248 94.9826C189.3 95.2291 191.431 97.9138 193.177 100.396C193.863 101.37 194.578 102.205 195.274 102.761C195.976 103.322 196.606 103.56 197.143 103.452C197.666 103.347 198.209 102.891 198.69 101.778C199.171 100.665 199.563 98.9526 199.803 96.4618L199.803 96.4564L199.804 96.4517L204.27 60.5196L204.271 60.5054L204.274 60.4919C204.462 59.5614 204.714 58.5327 205.004 57.651C205.149 57.2102 205.305 56.7999 205.471 56.4545C205.633 56.1148 205.817 55.8133 206.023 55.611Z" fill="#D4B87A"/>
<path d="M207.708 70.2465C207.88 70.2055 208.05 70.3234 208.088 70.5097L216.382 111.279C216.42 111.465 216.311 111.649 216.139 111.69C215.967 111.731 215.797 111.614 215.759 111.427L207.465 70.6582C207.427 70.4718 207.536 70.2876 207.708 70.2465ZM249.247 90.623C249.423 90.623 249.566 90.7777 249.566 90.9685C249.566 91.1593 249.423 91.314 249.247 91.314H235.848C235.672 91.314 235.529 91.1593 235.529 90.9685C235.529 90.7777 235.672 90.623 235.848 90.623H249.247Z" fill="#D4B87A"/>
<path d="M163.194 109.291C163.364 109.339 163.467 109.528 163.423 109.712C162.319 114.323 162.568 117.966 163.917 120.81C165.266 123.654 167.743 125.757 171.206 127.227C178.149 130.175 188.929 130.53 202.006 129.321C202.181 129.305 202.335 129.445 202.35 129.635C202.365 129.825 202.236 129.993 202.06 130.009C188.979 131.218 178.066 130.882 170.973 127.871C167.418 126.361 164.791 124.166 163.349 121.126C161.907 118.086 161.676 114.257 162.805 109.539C162.849 109.355 163.023 109.243 163.194 109.291Z" fill="#D4B87A"/>
<path d="M266.088 99.9196C268.707 98.3034 272.207 98.0993 276.794 99.9729C276.958 100.04 277.042 100.24 276.979 100.418C276.917 100.597 276.733 100.687 276.568 100.619C272.095 98.792 268.806 99.0374 266.404 100.52C263.991 102.008 262.4 104.788 261.418 108.193C259.452 115.011 259.985 124.137 261.043 129.59C261.079 129.777 260.969 129.96 260.796 129.999C260.624 130.038 260.455 129.919 260.419 129.733C259.349 124.219 258.798 114.961 260.809 107.988C261.816 104.498 263.478 101.53 266.088 99.9196ZM151.976 102.794C152.045 102.618 152.233 102.538 152.395 102.613C152.557 102.688 152.632 102.891 152.563 103.066C149.985 109.574 146.739 111.924 143.631 112.079C140.563 112.232 137.768 110.234 136.091 108.374C135.968 108.237 135.97 108.018 136.096 107.885C136.222 107.752 136.424 107.754 136.547 107.89C138.166 109.686 140.794 111.529 143.601 111.389C146.368 111.25 149.449 109.171 151.976 102.794Z" fill="#D4B87A"/>
<path d="M180.642 97.7302C182.821 96.9695 185.03 96.7521 187.034 97.496C189.048 98.2434 190.808 99.9433 192.114 102.912C192.189 103.084 192.122 103.29 191.963 103.372C191.804 103.454 191.614 103.381 191.538 103.209C190.291 100.373 188.648 98.8256 186.828 98.1499C184.998 97.4708 182.939 97.6545 180.838 98.3881C176.628 99.8578 172.365 103.493 169.723 106.412C169.6 106.548 169.398 106.55 169.272 106.417C169.147 106.283 169.144 106.065 169.267 105.928C171.942 102.973 176.292 99.249 180.642 97.7302Z" fill="#D4B87A"/>
<path d="M256.198 59.5356C256.37 59.4955 256.54 59.6144 256.577 59.8008C257.803 65.9788 259.099 75.5764 259 84.2963C258.951 88.6552 258.553 92.813 257.614 96.2208C256.678 99.622 255.186 102.332 252.912 103.709C252.758 103.802 252.563 103.742 252.477 103.576C252.391 103.409 252.446 103.198 252.6 103.105C254.664 101.856 256.086 99.3513 257.003 96.0231C257.918 92.7017 258.313 88.6149 258.362 84.2875C258.46 75.6347 257.172 66.0915 255.953 59.9466C255.916 59.7601 256.025 59.5758 256.198 59.5356Z" fill="#D4B87A"/>
<path d="M600.363 153.14V46.0547H613.519V91.7462L611.114 90.4731C613 85.6635 616.018 81.9384 620.168 79.2978C624.411 76.5629 629.363 75.1954 635.021 75.1954C640.491 75.1954 645.348 76.4214 649.591 78.8734C653.929 81.3254 657.324 84.7204 659.776 89.0585C662.323 93.3966 663.596 98.3006 663.596 103.77V153.14H650.299V108.014C650.299 103.77 649.497 100.187 647.894 97.2632C646.385 94.3397 644.263 92.0763 641.528 90.4731C638.793 88.7756 635.634 87.9268 632.05 87.9268C628.561 87.9268 625.402 88.7756 622.572 90.4731C619.743 92.0763 617.527 94.3868 615.924 97.4046C614.321 100.328 613.519 103.865 613.519 108.014V153.14H600.363Z" fill="#4A5D3A"/>
<path d="M495.373 153.141L469.203 76.8945H483.773L504.568 140.693L499.476 140.551L519.846 76.8945H532.294L552.664 140.551L547.572 140.693L568.508 76.8945H582.937L556.767 153.141H544.177L524.09 89.4845H528.05L507.963 153.141H495.373Z" fill="#4A5D3A"/>
<path d="M413.154 154.837C408.156 154.837 403.724 153.941 399.857 152.149C396.085 150.263 393.114 147.717 390.945 144.511C388.776 141.21 387.691 137.438 387.691 133.194C387.691 129.139 388.54 125.508 390.238 122.301C392.03 119.001 394.764 116.219 398.442 113.955C402.215 111.692 406.93 110.089 412.588 109.146L440.88 104.478V115.511L415.559 119.755C410.655 120.604 407.071 122.16 404.808 124.423C402.639 126.687 401.554 129.469 401.554 132.769C401.554 135.882 402.78 138.475 405.232 140.55C407.779 142.625 410.938 143.662 414.71 143.662C419.52 143.662 423.669 142.672 427.159 140.691C430.742 138.616 433.524 135.834 435.505 132.345C437.58 128.856 438.617 124.989 438.617 120.745V101.365C438.617 97.2159 437.061 93.868 433.949 91.3217C430.931 88.6812 426.923 87.3609 421.925 87.3609C417.587 87.3609 413.72 88.4925 410.325 90.7559C407.024 92.9249 404.572 95.8485 402.969 99.5264L391.511 93.5851C392.925 90.0957 395.189 86.9836 398.301 84.2487C401.413 81.4195 405.044 79.2033 409.193 77.6001C413.343 75.9969 417.681 75.1953 422.208 75.1953C428.055 75.1953 433.194 76.327 437.627 78.5903C442.059 80.7594 445.501 83.8244 447.953 87.7852C450.5 91.6518 451.773 96.1785 451.773 101.365V153.14H438.9V138.711L441.305 139.56C439.702 142.577 437.532 145.218 434.798 147.481C432.063 149.745 428.856 151.536 425.178 152.857C421.5 154.177 417.492 154.837 413.154 154.837Z" fill="#4A5D3A"/>
<path d="M311 153.142V47.7539H324.863V140.41H371.12V153.142H311Z" fill="#4A5D3A"/>
</svg>
